<mxfile host="app.diagrams.net" agent="Mozilla/5.0 (Windows NT 10.0; Win64; x64) AppleWebKit/537.36 (KHTML, like Gecko) Chrome/134.0.0.0 Safari/537.36 OPR/119.0.0.0" version="27.1.1">
  <diagram name="Page-1" id="55a83fd1-7818-8e21-69c5-c3457e3827bb">
    <mxGraphModel dx="1286" dy="1194" grid="0" gridSize="10" guides="1" tooltips="1" connect="1" arrows="1" fold="1" page="1" pageScale="1" pageWidth="1100" pageHeight="850" background="none" math="0" shadow="0">
      <root>
        <mxCell id="0" />
        <mxCell id="1" parent="0" />
        <mxCell id="YBul7V1HQ161Eak2sEyC-78" value="" style="rounded=0;whiteSpace=wrap;html=1;" vertex="1" parent="1">
          <mxGeometry x="13" y="14" width="662" height="63" as="geometry" />
        </mxCell>
        <mxCell id="YBul7V1HQ161Eak2sEyC-27" value="" style="rounded=1;whiteSpace=wrap;html=1;rotation=90;" vertex="1" parent="1">
          <mxGeometry x="768" y="625.69" width="338.13" height="169" as="geometry" />
        </mxCell>
        <mxCell id="YBul7V1HQ161Eak2sEyC-26" value="" style="rounded=1;whiteSpace=wrap;html=1;rotation=90;" vertex="1" parent="1">
          <mxGeometry x="519" y="625.31" width="340" height="168.5" as="geometry" />
        </mxCell>
        <mxCell id="YBul7V1HQ161Eak2sEyC-25" value="" style="rounded=1;whiteSpace=wrap;html=1;rotation=90;" vertex="1" parent="1">
          <mxGeometry x="206.49" y="678.08" width="454.26" height="178.98" as="geometry" />
        </mxCell>
        <mxCell id="YBul7V1HQ161Eak2sEyC-16" value="" style="rounded=1;whiteSpace=wrap;html=1;rotation=90;" vertex="1" parent="1">
          <mxGeometry x="-130" y="718.81" width="535.57" height="177.31" as="geometry" />
        </mxCell>
        <mxCell id="YBul7V1HQ161Eak2sEyC-12" value="" style="rounded=1;whiteSpace=wrap;html=1;" vertex="1" parent="1">
          <mxGeometry x="303" y="106" width="495" height="290" as="geometry" />
        </mxCell>
        <mxCell id="YBul7V1HQ161Eak2sEyC-2" value="" style="image;aspect=fixed;perimeter=ellipsePerimeter;html=1;align=center;shadow=0;dashed=0;spacingTop=3;image=img/lib/active_directory/windows_server_2.svg;" vertex="1" parent="1">
          <mxGeometry x="506" y="109" width="109" height="136.25" as="geometry" />
        </mxCell>
        <mxCell id="YBul7V1HQ161Eak2sEyC-3" value="" style="image;sketch=0;aspect=fixed;html=1;points=[];align=center;fontSize=12;image=img/lib/mscae/VirtualMachineWindows.svg;" vertex="1" parent="1">
          <mxGeometry x="83.49000000000001" y="655" width="96" height="88.32" as="geometry" />
        </mxCell>
        <mxCell id="YBul7V1HQ161Eak2sEyC-4" value="" style="image;aspect=fixed;html=1;points=[];align=center;fontSize=12;image=img/lib/azure2/identity/Azure_Active_Directory.svg;" vertex="1" parent="1">
          <mxGeometry x="376" y="267" width="70" height="64" as="geometry" />
        </mxCell>
        <mxCell id="YBul7V1HQ161Eak2sEyC-5" value="" style="image;aspect=fixed;html=1;points=[];align=center;fontSize=12;image=img/lib/azure2/networking/DNS_Multistack.svg;" vertex="1" parent="1">
          <mxGeometry x="515" y="313" width="68" height="68" as="geometry" />
        </mxCell>
        <mxCell id="YBul7V1HQ161Eak2sEyC-6" value="" style="verticalLabelPosition=bottom;sketch=0;aspect=fixed;html=1;verticalAlign=top;strokeColor=none;align=center;outlineConnect=0;shape=mxgraph.citrix.dhcp_server;" vertex="1" parent="1">
          <mxGeometry x="672" y="272" width="55" height="65.13" as="geometry" />
        </mxCell>
        <mxCell id="YBul7V1HQ161Eak2sEyC-7" value="" style="sketch=0;pointerEvents=1;shadow=0;dashed=0;html=1;strokeColor=none;fillColor=#505050;labelPosition=center;verticalLabelPosition=bottom;verticalAlign=top;outlineConnect=0;align=center;shape=mxgraph.office.servers.windows_router;" vertex="1" parent="1">
          <mxGeometry x="396.05" y="651" width="75" height="102" as="geometry" />
        </mxCell>
        <mxCell id="YBul7V1HQ161Eak2sEyC-10" value="" style="sketch=0;pointerEvents=1;shadow=0;dashed=0;html=1;strokeColor=none;fillColor=#005F4B;labelPosition=center;verticalLabelPosition=bottom;verticalAlign=top;align=center;outlineConnect=0;shape=mxgraph.veeam2.linux_server;" vertex="1" parent="1">
          <mxGeometry x="646.75" y="660.06" width="79" height="100.32" as="geometry" />
        </mxCell>
        <mxCell id="YBul7V1HQ161Eak2sEyC-11" value="" style="image;sketch=0;aspect=fixed;html=1;points=[];align=center;fontSize=12;image=img/lib/mscae/VM_Linux.svg;" vertex="1" parent="1">
          <mxGeometry x="892.07" y="651.06" width="93.48" height="86" as="geometry" />
        </mxCell>
        <mxCell id="YBul7V1HQ161Eak2sEyC-13" value="" style="image;sketch=0;aspect=fixed;html=1;points=[];align=center;fontSize=12;image=img/lib/mscae/VirtualMachineWindows.svg;" vertex="1" parent="1">
          <mxGeometry x="83.49000000000001" y="752" width="103.61" height="95.32" as="geometry" />
        </mxCell>
        <mxCell id="YBul7V1HQ161Eak2sEyC-14" value="" style="image;sketch=0;aspect=fixed;html=1;points=[];align=center;fontSize=12;image=img/lib/mscae/VirtualMachineWindows.svg;" vertex="1" parent="1">
          <mxGeometry x="84.49000000000001" y="864" width="96" height="88.32" as="geometry" />
        </mxCell>
        <mxCell id="YBul7V1HQ161Eak2sEyC-15" value="" style="image;sketch=0;aspect=fixed;html=1;points=[];align=center;fontSize=12;image=img/lib/mscae/VirtualMachineWindows.svg;" vertex="1" parent="1">
          <mxGeometry x="86.37" y="970" width="96" height="88.32" as="geometry" />
        </mxCell>
        <mxCell id="YBul7V1HQ161Eak2sEyC-19" value="" style="sketch=0;pointerEvents=1;shadow=0;dashed=0;html=1;strokeColor=none;fillColor=#505050;labelPosition=center;verticalLabelPosition=bottom;verticalAlign=top;outlineConnect=0;align=center;shape=mxgraph.office.servers.windows_router;" vertex="1" parent="1">
          <mxGeometry x="393.05" y="765.25" width="75" height="102" as="geometry" />
        </mxCell>
        <mxCell id="YBul7V1HQ161Eak2sEyC-20" value="" style="sketch=0;pointerEvents=1;shadow=0;dashed=0;html=1;strokeColor=none;fillColor=#505050;labelPosition=center;verticalLabelPosition=bottom;verticalAlign=top;outlineConnect=0;align=center;shape=mxgraph.office.servers.windows_router;" vertex="1" parent="1">
          <mxGeometry x="395.05" y="878.16" width="75" height="102" as="geometry" />
        </mxCell>
        <mxCell id="YBul7V1HQ161Eak2sEyC-21" value="" style="sketch=0;pointerEvents=1;shadow=0;dashed=0;html=1;strokeColor=none;fillColor=#005F4B;labelPosition=center;verticalLabelPosition=bottom;verticalAlign=top;align=center;outlineConnect=0;shape=mxgraph.veeam2.linux_server;" vertex="1" parent="1">
          <mxGeometry x="644.75" y="769.06" width="83" height="89" as="geometry" />
        </mxCell>
        <mxCell id="YBul7V1HQ161Eak2sEyC-24" value="" style="image;sketch=0;aspect=fixed;html=1;points=[];align=center;fontSize=12;image=img/lib/mscae/VM_Linux.svg;" vertex="1" parent="1">
          <mxGeometry x="892.07" y="744.06" width="93.48" height="86" as="geometry" />
        </mxCell>
        <mxCell id="YBul7V1HQ161Eak2sEyC-28" value="&lt;b&gt;AD DS&amp;nbsp;&lt;/b&gt;" style="text;strokeColor=none;align=center;fillColor=none;html=1;verticalAlign=middle;whiteSpace=wrap;rounded=0;" vertex="1" parent="1">
          <mxGeometry x="381" y="242" width="60" height="30" as="geometry" />
        </mxCell>
        <mxCell id="YBul7V1HQ161Eak2sEyC-29" value="&lt;b&gt;DNS&lt;/b&gt;" style="text;strokeColor=none;align=center;fillColor=none;html=1;verticalAlign=middle;whiteSpace=wrap;rounded=0;" vertex="1" parent="1">
          <mxGeometry x="497" y="307" width="60" height="30" as="geometry" />
        </mxCell>
        <mxCell id="YBul7V1HQ161Eak2sEyC-30" value="&lt;b&gt;DHCP&lt;/b&gt;" style="text;strokeColor=none;align=center;fillColor=none;html=1;verticalAlign=middle;whiteSpace=wrap;rounded=0;" vertex="1" parent="1">
          <mxGeometry x="667" y="242" width="60" height="30" as="geometry" />
        </mxCell>
        <mxCell id="YBul7V1HQ161Eak2sEyC-39" value="" style="endArrow=classic;html=1;rounded=0;exitX=0.003;exitY=0.982;exitDx=0;exitDy=0;exitPerimeter=0;shape=link;" edge="1" parent="1" source="YBul7V1HQ161Eak2sEyC-2" target="YBul7V1HQ161Eak2sEyC-4">
          <mxGeometry width="50" height="50" relative="1" as="geometry">
            <mxPoint x="602" y="432" as="sourcePoint" />
            <mxPoint x="652" y="382" as="targetPoint" />
          </mxGeometry>
        </mxCell>
        <mxCell id="YBul7V1HQ161Eak2sEyC-40" value="" style="endArrow=classic;html=1;rounded=0;shape=link;entryX=0.75;entryY=0;entryDx=0;entryDy=0;" edge="1" parent="1">
          <mxGeometry width="50" height="50" relative="1" as="geometry">
            <mxPoint x="549" y="253" as="sourcePoint" />
            <mxPoint x="552" y="302" as="targetPoint" />
          </mxGeometry>
        </mxCell>
        <mxCell id="YBul7V1HQ161Eak2sEyC-41" value="" style="endArrow=classic;html=1;rounded=0;shape=link;exitX=0.962;exitY=0.951;exitDx=0;exitDy=0;exitPerimeter=0;" edge="1" parent="1" source="YBul7V1HQ161Eak2sEyC-2" target="YBul7V1HQ161Eak2sEyC-6">
          <mxGeometry width="50" height="50" relative="1" as="geometry">
            <mxPoint x="546" y="263" as="sourcePoint" />
            <mxPoint x="549" y="312" as="targetPoint" />
          </mxGeometry>
        </mxCell>
        <mxCell id="YBul7V1HQ161Eak2sEyC-43" value="&lt;b&gt;Win 10/11 Workstations&lt;/b&gt;" style="text;strokeColor=none;align=center;fillColor=none;html=1;verticalAlign=middle;whiteSpace=wrap;rounded=0;" vertex="1" parent="1">
          <mxGeometry x="64.87" y="619" width="143" height="30" as="geometry" />
        </mxCell>
        <mxCell id="YBul7V1HQ161Eak2sEyC-44" value="&lt;b&gt;Windows Server 2022&lt;/b&gt;" style="text;strokeColor=none;align=center;fillColor=none;html=1;verticalAlign=middle;whiteSpace=wrap;rounded=0;" vertex="1" parent="1">
          <mxGeometry x="564" y="154" width="162" height="30" as="geometry" />
        </mxCell>
        <mxCell id="YBul7V1HQ161Eak2sEyC-48" value="" style="rounded=0;whiteSpace=wrap;html=1;" vertex="1" parent="1">
          <mxGeometry x="65.49000000000001" y="557" width="141" height="30" as="geometry" />
        </mxCell>
        <mxCell id="YBul7V1HQ161Eak2sEyC-47" value="&lt;font style=&quot;font-size: 14px;&quot;&gt;&lt;b&gt;Employee Endpoints&lt;/b&gt;&lt;/font&gt;" style="text;strokeColor=none;align=center;fillColor=none;html=1;verticalAlign=middle;whiteSpace=wrap;rounded=0;" vertex="1" parent="1">
          <mxGeometry x="64.87" y="554" width="143" height="30" as="geometry" />
        </mxCell>
        <mxCell id="YBul7V1HQ161Eak2sEyC-52" value="" style="rounded=0;whiteSpace=wrap;html=1;" vertex="1" parent="1">
          <mxGeometry x="351.62" y="560" width="164" height="46" as="geometry" />
        </mxCell>
        <mxCell id="YBul7V1HQ161Eak2sEyC-58" value="" style="rounded=0;whiteSpace=wrap;html=1;" vertex="1" parent="1">
          <mxGeometry x="317.56" y="121" width="175" height="33" as="geometry" />
        </mxCell>
        <mxCell id="YBul7V1HQ161Eak2sEyC-50" value="&lt;font style=&quot;font-size: 14px;&quot;&gt;&lt;b&gt;File management/DNS servers&lt;/b&gt;&lt;/font&gt;" style="text;strokeColor=none;align=center;fillColor=none;html=1;verticalAlign=middle;whiteSpace=wrap;rounded=0;" vertex="1" parent="1">
          <mxGeometry x="361.93" y="568" width="150.12" height="30" as="geometry" />
        </mxCell>
        <mxCell id="YBul7V1HQ161Eak2sEyC-53" value="&lt;b&gt;Win Server Members&lt;/b&gt;" style="text;strokeColor=none;align=center;fillColor=none;html=1;verticalAlign=middle;whiteSpace=wrap;rounded=0;" vertex="1" parent="1">
          <mxGeometry x="365.49" y="621" width="143" height="30" as="geometry" />
        </mxCell>
        <mxCell id="YBul7V1HQ161Eak2sEyC-55" value="" style="rounded=0;whiteSpace=wrap;html=1;" vertex="1" parent="1">
          <mxGeometry x="612.75" y="554.06" width="152" height="43" as="geometry" />
        </mxCell>
        <mxCell id="YBul7V1HQ161Eak2sEyC-54" value="&lt;span style=&quot;font-size: 14px;&quot;&gt;&lt;b&gt;Internal App / Syslog&lt;/b&gt;&lt;/span&gt;" style="text;strokeColor=none;align=center;fillColor=none;html=1;verticalAlign=middle;whiteSpace=wrap;rounded=0;" vertex="1" parent="1">
          <mxGeometry x="617.75" y="559.06" width="141" height="27" as="geometry" />
        </mxCell>
        <mxCell id="YBul7V1HQ161Eak2sEyC-57" value="&lt;b&gt;Linux Server&lt;/b&gt;" style="text;strokeColor=none;align=center;fillColor=none;html=1;verticalAlign=middle;whiteSpace=wrap;rounded=0;" vertex="1" parent="1">
          <mxGeometry x="618.5" y="630.06" width="143" height="30" as="geometry" />
        </mxCell>
        <mxCell id="YBul7V1HQ161Eak2sEyC-42" value="&lt;b&gt;On-prem Domain Controller&lt;/b&gt;" style="text;strokeColor=none;align=center;fillColor=none;html=1;verticalAlign=middle;whiteSpace=wrap;rounded=0;" vertex="1" parent="1">
          <mxGeometry x="322.06" y="121" width="166" height="30" as="geometry" />
        </mxCell>
        <mxCell id="YBul7V1HQ161Eak2sEyC-59" value="" style="rounded=0;whiteSpace=wrap;html=1;" vertex="1" parent="1">
          <mxGeometry x="861.07" y="554.06" width="152" height="43" as="geometry" />
        </mxCell>
        <mxCell id="YBul7V1HQ161Eak2sEyC-60" value="&lt;span style=&quot;font-size: 14px;&quot;&gt;&lt;b&gt;Developers /&lt;/b&gt;&lt;/span&gt;&lt;div&gt;&lt;span style=&quot;font-size: 14px;&quot;&gt;&lt;b&gt;&amp;nbsp;IT Analysts&lt;/b&gt;&lt;/span&gt;&lt;/div&gt;" style="text;strokeColor=none;align=center;fillColor=none;html=1;verticalAlign=middle;whiteSpace=wrap;rounded=0;" vertex="1" parent="1">
          <mxGeometry x="854.37" y="561.06" width="170.2" height="27" as="geometry" />
        </mxCell>
        <mxCell id="YBul7V1HQ161Eak2sEyC-61" value="&lt;b&gt;Linux Workstation&lt;/b&gt;" style="text;strokeColor=none;align=center;fillColor=none;html=1;verticalAlign=middle;whiteSpace=wrap;rounded=0;" vertex="1" parent="1">
          <mxGeometry x="865.57" y="625.06" width="143" height="30" as="geometry" />
        </mxCell>
        <mxCell id="YBul7V1HQ161Eak2sEyC-66" value="" style="endArrow=none;html=1;rounded=0;" edge="1" parent="1">
          <mxGeometry width="50" height="50" relative="1" as="geometry">
            <mxPoint x="135" y="438" as="sourcePoint" />
            <mxPoint x="942" y="438" as="targetPoint" />
          </mxGeometry>
        </mxCell>
        <mxCell id="YBul7V1HQ161Eak2sEyC-76" value="&lt;font face=&quot;Verdana&quot; style=&quot;font-size: 24px;&quot;&gt;&lt;b style=&quot;&quot;&gt;On-prem Assets&lt;/b&gt;&lt;/font&gt;" style="edgeLabel;html=1;align=center;verticalAlign=middle;resizable=0;points=[];" vertex="1" connectable="0" parent="YBul7V1HQ161Eak2sEyC-66">
          <mxGeometry x="0.0137" y="-1" relative="1" as="geometry">
            <mxPoint x="7" as="offset" />
          </mxGeometry>
        </mxCell>
        <mxCell id="YBul7V1HQ161Eak2sEyC-69" value="" style="endArrow=classic;html=1;rounded=0;entryX=0;entryY=0.5;entryDx=0;entryDy=0;" edge="1" parent="1">
          <mxGeometry width="50" height="50" relative="1" as="geometry">
            <mxPoint x="135" y="439" as="sourcePoint" />
            <mxPoint x="134.78500000000008" y="539.6799999999998" as="targetPoint" />
          </mxGeometry>
        </mxCell>
        <mxCell id="YBul7V1HQ161Eak2sEyC-70" value="" style="endArrow=classic;html=1;rounded=0;entryX=0;entryY=0.5;entryDx=0;entryDy=0;" edge="1" parent="1">
          <mxGeometry width="50" height="50" relative="1" as="geometry">
            <mxPoint x="426" y="440" as="sourcePoint" />
            <mxPoint x="425.7850000000001" y="540.6799999999998" as="targetPoint" />
          </mxGeometry>
        </mxCell>
        <mxCell id="YBul7V1HQ161Eak2sEyC-71" value="" style="endArrow=classic;html=1;rounded=0;entryX=0;entryY=0.5;entryDx=0;entryDy=0;" edge="1" parent="1">
          <mxGeometry width="50" height="50" relative="1" as="geometry">
            <mxPoint x="688" y="440" as="sourcePoint" />
            <mxPoint x="687.7850000000001" y="540.6799999999998" as="targetPoint" />
          </mxGeometry>
        </mxCell>
        <mxCell id="YBul7V1HQ161Eak2sEyC-72" value="" style="endArrow=classic;html=1;rounded=0;entryX=0;entryY=0.5;entryDx=0;entryDy=0;" edge="1" parent="1">
          <mxGeometry width="50" height="50" relative="1" as="geometry">
            <mxPoint x="941" y="440" as="sourcePoint" />
            <mxPoint x="940.7850000000001" y="540.6799999999998" as="targetPoint" />
          </mxGeometry>
        </mxCell>
        <mxCell id="YBul7V1HQ161Eak2sEyC-73" value="" style="endArrow=classic;html=1;rounded=0;exitX=0.5;exitY=1;exitDx=0;exitDy=0;shape=link;" edge="1" parent="1">
          <mxGeometry width="50" height="50" relative="1" as="geometry">
            <mxPoint x="550.5" y="398" as="sourcePoint" />
            <mxPoint x="551" y="437" as="targetPoint" />
            <Array as="points" />
          </mxGeometry>
        </mxCell>
        <mxCell id="YBul7V1HQ161Eak2sEyC-75" value="On-Premises Simulation Topology and Functional Roles" style="text;strokeColor=none;fillColor=none;html=1;fontSize=24;fontStyle=1;verticalAlign=middle;align=center;" vertex="1" parent="1">
          <mxGeometry x="292" y="24" width="100" height="40" as="geometry" />
        </mxCell>
      </root>
    </mxGraphModel>
  </diagram>
</mxfile>
